<?xml version="1.0" encoding="UTF-8" standalone="no"?>
<!-- Created with Inkscape (http://www.inkscape.org/) -->

<svg
   width="130.00034mm"
   height="130.00034mm"
   viewBox="0 0 130.00034 130.00034"
   version="1.1"
   id="svg5"
   inkscape:version="1.1 (c68e22c387, 2021-05-23)"
   sodipodi:docname="reloj_negro.svg"
   xmlns:inkscape="http://www.inkscape.org/namespaces/inkscape"
   xmlns:sodipodi="http://sodipodi.sourceforge.net/DTD/sodipodi-0.dtd"
   xmlns="http://www.w3.org/2000/svg"
   xmlns:svg="http://www.w3.org/2000/svg">
  <sodipodi:namedview
     id="namedview7"
     pagecolor="#ffffff"
     bordercolor="#666666"
     borderopacity="1.0"
     inkscape:pageshadow="2"
     inkscape:pageopacity="0.0"
     inkscape:pagecheckerboard="0"
     inkscape:document-units="mm"
     showgrid="false"
     showguides="false"
     inkscape:zoom="0.70710678"
     inkscape:cx="307.59145"
     inkscape:cy="309.71277"
     inkscape:window-width="1920"
     inkscape:window-height="1028"
     inkscape:window-x="-8"
     inkscape:window-y="-8"
     inkscape:window-maximized="1"
     inkscape:current-layer="layer1" />
  <defs
     id="defs2" />
  <g
     inkscape:label="Capa 1"
     inkscape:groupmode="layer"
     id="layer1"
     transform="translate(-39.122675,-40.516389)">
    <path
       id="path565"
       style="fill:#000000;stroke-width:1.05827"
       d="M 393.53516,153.13281 A 245.66929,245.66929 0 0 0 147.86523,398.80273 245.66929,245.66929 0 0 0 393.53516,644.47266 245.66929,245.66929 0 0 0 639.20508,398.80273 245.66929,245.66929 0 0 0 393.53516,153.13281 Z m -2,37.79688 a 207.87402,207.87402 0 0 1 207.875,207.875 207.87402,207.87402 0 0 1 -207.875,207.87304 207.87402,207.87402 0 0 1 -207.87305,-207.87304 207.87402,207.87402 0 0 1 207.87305,-207.875 z"
       transform="scale(0.26458333)" />
    <circle
       style="fill:#000000;fill-opacity:1;stroke:#000000;stroke-width:0.276135;stroke-opacity:1"
       id="path2670"
       cx="102.53549"
       cy="105.516"
       r="9.8619328" />
    <rect
       style="fill:#000000;fill-opacity:1;stroke:#000000;stroke-width:0.229944;stroke-opacity:1"
       id="rect3244"
       width="8.2819595"
       height="46.448044"
       x="15.127277"
       y="146.05342"
       ry="2.1481492e-06"
       transform="rotate(-36.365166)" />
    <rect
       style="fill:#000000;fill-opacity:1;stroke:#000000;stroke-width:0.248737;stroke-opacity:1"
       id="rect3244-2"
       width="8.2631664"
       height="54.474064"
       x="142.06334"
       y="-69.911133"
       ry="2.5193399e-06"
       transform="rotate(52.754605)" />
  </g>
</svg>
